Coordinates
version=1
nRows=6
nColumns=36
inDegrees=yes

Units are S.I. units (second, meters, Newtons, ...)
If the header above contains a line with 'inDegrees', this indicates whether rotational values are in degrees (yes) or radians (no).

endheader
time	pelvis_tilt	pelvis_list	pelvis_rotation	pelvis_tx	pelvis_ty	pelvis_tz	hip_flexion_r	hip_adduction_r	hip_rotation_r	knee_angle_r	knee_angle_r_beta	ankle_angle_r	subtalar_angle_r	mtp_angle_r	hip_flexion_l	hip_adduction_l	hip_rotation_l	knee_angle_l	knee_angle_l_beta	ankle_angle_l	subtalar_angle_l	mtp_angle_l	lumbar_extension	lumbar_bending	lumbar_rotation	arm_flex_r	arm_add_r	arm_rot_r	elbow_flex_r	pro_sup_r	arm_flex_l	arm_add_l	arm_rot_l	elbow_flex_l	pro_sup_l
      1.37500000	    -15.53327401	      4.16183879	     -1.08540920	     -0.89861102	      1.10435595	     -0.06167637	     43.83919241	     -7.85381932	      0.12414405	     77.73756388	      1.35677644	     42.23185817	    -11.96053080	     -7.49999987	     43.54941661	      0.97047328	     -3.08814710	     77.15053902	      1.34653093	     36.84465949	    -13.85736619	     -7.49999987	    -36.25509982	      0.88952602	      2.73556460	     57.42745822	     -9.82769168	      9.12606679	     39.56827758	     79.53566378	     54.63859171	     -0.30023570	     22.59160171	     50.66439660	     82.42792469
      1.37916670	    -15.66580805	      4.18455567	     -1.36511377	     -0.89547901	      1.09734232	     -0.06121476	     43.37600737	     -8.12978342	      0.03811552	     77.70341410	      1.35618042	     43.09625906	    -11.13039884	     -7.49999987	     43.26468761	      0.96380578	     -3.24621820	     77.26441106	      1.34851837	     37.27169467	    -14.28663903	     -7.49999987	    -35.11044444	      0.89195275	      2.84595423	     57.96551622	     -9.21201130	      9.13688958	     40.76996686	     78.32664163	     54.62812569	     -0.04266742	     21.59974756	     52.35890600	     80.78924436
      1.38333330	    -15.86738799	      4.13135394	     -1.51840280	     -0.89331123	      1.09964355	     -0.05933524	     43.07763081	     -8.06173163	      0.07806294	     77.49750988	      1.35258671	     43.50819654	    -11.18748866	     -7.49999987	     43.19722605	      0.88303645	     -3.25726820	     77.24409044	      1.34816371	     37.61669017	    -14.50053984	     -7.49999987	    -34.05138721	      0.77795136	      3.07066207	     58.69098469	     -8.70013235	      9.30081662	     41.21947724	     78.32662791	     55.34359241	      0.27638728	     21.54884670	     52.83822851	     80.74589800
      1.38750000	    -16.14773719	      3.95409576	     -1.65843890	     -0.88763812	      1.10115400	     -0.05832430	     42.73366121	     -7.90478582	     -0.04930104	     77.09402828	      1.34554463	     44.05694030	    -10.62639054	     -7.49999987	     43.11949793	      0.58810224	     -3.20978712	     77.16063390	      1.34670711	     37.63233300	    -14.67971129	     -7.49999987	    -33.01625615	      1.00814090	      2.95915091	     59.37849711	     -8.35664812	     11.83301707	     42.59257691	     75.38900046	     55.17588710	     -0.24428004	     21.15771336	     55.59162568	     76.54945810
      1.39166670	    -16.67510497	      3.71855352	     -1.62441053	     -0.89137831	      1.10112096	     -0.05507598	     43.23688256	     -7.37923549	     -0.11574255	     76.88942727	      1.34197367	     44.45927445	    -10.19695014	     -7.49999987	     43.74943620	      0.12919333	     -3.00760292	     77.15567455	      1.34662056	     37.55722131	    -14.60774731	     -7.49999987	    -31.97658266	      0.97786909	      3.18445789	     60.19596143	     -8.12163240	     12.46239214	     44.32964562	     75.22636778	     56.30049516	     -0.32331653	     21.20554919	     56.91106977	     76.30166456
      1.39583330	    -17.01725472	      3.53021044	     -1.64220388	     -0.88622517	      1.09988786	     -0.05367835	     43.31521876	     -6.89336647	     -0.13989664	     76.68776850	      1.33845406	     44.76902900	     -9.66638131	     -7.49999987	     43.92903822	     -0.28549640	     -2.84782927	     77.05791741	      1.34491437	     37.57430529	    -14.51935595	     -7.49999987	    -31.01755082	      0.95163728	      3.30265614	     60.90563390	     -7.86802660	     13.63291798	     46.06306391	     74.90252916	     57.38212185	     -0.54997647	     21.33020307	     58.24934334	     75.71774962
